<svg width="100%" height="220" viewBox="0 0 1000 220" xmlns="http://www.w3.org/2000/svg">

  <!-- Animated background gradient -->
  <defs>
    <linearGradient id="grad">
      <stop offset="0%" stop-color="#0a0a0a">
        <animate attributeName="stop-color"
                 values="#0a0a0a; #1a1a1a; #0a0a0a"
                 dur="10s" repeatCount="indefinite" />
      </stop>
      <stop offset="100%" stop-color="#1a1a1a">
        <animate attributeName="stop-color"
                 values="#1a1a1a; #000000; #1a1a1a"
                 dur="10s" repeatCount="indefinite" />
      </stop>
    </linearGradient>

    <!-- Glass blur effect -->
    <filter id="glass" x="-20%" y="-20%" width="140%" height="140%">
      <feGaussianBlur in="SourceGraphic" stdDeviation="22" result="blur" />
      <feColorMatrix type="matrix"
        values="1 0 0 0 0
                0 1 0 0 0
                0 0 1 0 0
                0 0 0 0.28 0" />
    </filter>
  </defs>

  <!-- Background fill -->
  <rect width="100%" height="100%" fill="url(#grad)" />

  <!-- Dense Swiss-style grid -->
  <g stroke="#ffffff10" stroke-width="0.5">

    <!-- vertical lines every 50px -->
    <line x1="50" x2="50" y1="0" y2="220" />
    <line x1="100" x2="100" y1="0" y2="220" />
    <line x1="150" x2="150" y1="0" y2="220" />
    <line x1="200" x2="200" y1="0" y2="220" />
    <line x1="250" x2="250" y1="0" y2="220" />
    <line x1="300" x2="300" y1="0" y2="220" />
    <line x1="350" x2="350" y1="0" y2="220" />
    <line x1="400" x2="400" y1="0" y2="220" />
    <line x1="450" x2="450" y1="0" y2="220" />
    <line x1="500" x2="500" y1="0" y2="220" />
    <line x1="550" x2="550" y1="0" y2="220" />
    <line x1="600" x2="600" y1="0" y2="220" />
    <line x1="650" x2="650" y1="0" y2="220" />
    <line x1="700" x2="700" y1="0" y2="220" />
    <line x1="750" x2="750" y1="0" y2="220" />
    <line x1="800" x2="800" y1="0" y2="220" />
    <line x1="850" x2="850" y1="0" y2="220" />
    <line x1="900" x2="900" y1="0" y2="220" />
    <line x1="950" x2="950" y1="0" y2="220" />

    <!-- horizontal lines every 40px -->
    <line x1="0" x2="1000" y1="40" y2="40" />
    <line x1="0" x2="1000" y1="80" y2="80" />
    <line x1="0" x2="1000" y1="120" y2="120" />
    <line x1="0" x2="1000" y1="160" y2="160" />
    <line x1="0" x2="1000" y1="200" y2="200" />
  </g>

  <!-- Apple liquid-glass blob -->
  <ellipse cx="760" cy="110" rx="260" ry="70"
    fill="#ffffff15"
    filter="url(#glass)" />

</svg>
